<svg width="41" height="31" viewBox="0 0 41 31" fill="none" xmlns="http://www.w3.org/2000/svg">
<path d="M36.7543 0.0399485L20.6523 0.0798969L4.55035 0H4.54251C2.3778 0 0.660156 2.06933 0.660156 4.65799V26.342C0.660156 28.9307 2.3778 31 4.54251 31H36.7778C38.9425 31 40.6602 28.9307 40.6602 26.342V4.65799C40.6602 2.06933 38.9582 0.0399485 36.7543 0.0399485ZM35.4915 3.23582L21.1072 16.6345L21.0523 16.6825L21.0053 16.7384C20.8327 16.9302 20.6288 16.9541 20.519 16.9541C20.4092 16.9541 20.2053 16.9222 20.0405 16.7224L19.9935 16.6665L6.24447 3.17191L20.6523 3.26778L35.4915 3.23582ZM36.7778 27.8041H4.54251C4.268 27.8041 3.79741 27.2768 3.79741 26.342V5.16933L17.7268 18.8796C18.4327 19.6786 19.4288 20.142 20.4876 20.158H20.5347C21.5778 20.158 22.5504 19.7186 23.2641 18.9515L37.5386 5.64072V26.342C37.5229 27.2768 37.0523 27.8041 36.7778 27.8041Z" fill="white"/>
</svg>
