<svg width="43" height="42" viewBox="0 0 43 42" fill="none" xmlns="http://www.w3.org/2000/svg">
<path d="M21.6601 0C16.6736 0.000212007 11.8499 1.81963 8.05209 5.13269C4.25427 8.44576 1.73016 13.0363 0.931391 18.0829C0.132625 23.1295 1.11133 28.3028 3.69238 32.6773C6.27343 37.0517 10.2884 40.3418 15.0189 41.9588C16.0689 42.1472 16.4626 41.5013 16.4626 40.9361C16.4626 40.4247 16.4364 38.7291 16.4364 36.9259C11.1601 37.9217 9.79515 35.6072 9.37515 34.3961C8.90911 33.2181 8.17034 32.1743 7.22267 31.3547C6.48767 30.951 5.43768 29.9552 7.1964 29.9283C7.86794 30.003 8.51203 30.2426 9.07408 30.6268C9.63613 31.011 10.0996 31.5284 10.4251 32.1352C10.7124 32.6642 11.0986 33.1299 11.5616 33.5057C12.0247 33.8814 12.5555 34.1597 13.1237 34.3247C13.6919 34.4897 14.2862 34.5382 14.8727 34.4673C15.4591 34.3964 16.0262 34.2075 16.5413 33.9115C16.6322 32.8169 17.108 31.7935 17.8801 31.0318C13.2076 30.4935 8.32516 28.6364 8.32516 20.4008C8.29565 18.2609 9.06579 16.1906 10.4776 14.6143C9.83564 12.7545 9.91076 10.7135 10.6876 8.90857C10.6876 8.90857 12.4463 8.34336 16.4626 11.1155C19.8988 10.1466 23.5263 10.1466 26.9625 11.1155C30.9787 8.31647 32.7375 8.90857 32.7375 8.90857C33.5145 10.7135 33.5896 12.7545 32.9475 14.6143C34.3636 16.1879 35.1344 18.26 35.1 20.4008C35.1 28.6633 30.1912 30.4935 25.5188 31.0318C26.02 31.5526 26.4059 32.1779 26.6505 32.8652C26.8951 33.5525 26.9926 34.2857 26.9363 35.0151C26.9363 37.8949 26.91 40.2094 26.91 40.9361C26.91 41.5014 27.3038 42.1742 28.3537 41.9589C33.0759 40.3287 37.0793 37.0309 39.6494 32.6542C42.2195 28.2776 43.1889 23.1069 42.3846 18.0651C41.5803 13.0234 39.0546 8.43885 35.2584 5.12982C31.4623 1.82078 26.6427 0.0026589 21.6601 0Z" fill="white"/>
</svg>
