<svg width="43" height="42" viewBox="0 0 43 42" fill="none" xmlns="http://www.w3.org/2000/svg">
<path d="M38.0712 0C39.3089 0 40.4959 0.491665 41.3711 1.36683C42.2462 2.242 42.7379 3.42899 42.7379 4.66667V37.3333C42.7379 38.571 42.2462 39.758 41.3711 40.6332C40.4959 41.5083 39.3089 42 38.0712 42H5.40458C4.1669 42 2.97992 41.5083 2.10475 40.6332C1.22958 39.758 0.737915 38.571 0.737915 37.3333V4.66667C0.737915 3.42899 1.22958 2.242 2.10475 1.36683C2.97992 0.491665 4.1669 0 5.40458 0H38.0712ZM36.9046 36.1667V23.8C36.9046 21.7826 36.1032 19.8478 34.6766 18.4213C33.2501 16.9947 31.3153 16.1933 29.2979 16.1933C27.3146 16.1933 25.0046 17.4067 23.8846 19.2267V16.6367H17.3746V36.1667H23.8846V24.6633C23.8846 22.8667 25.3312 21.3967 27.1279 21.3967C27.9943 21.3967 28.8252 21.7408 29.4378 22.3535C30.0504 22.9661 30.3946 23.797 30.3946 24.6633V36.1667H36.9046ZM9.79125 12.9733C10.8309 12.9733 11.828 12.5603 12.5631 11.8252C13.2982 11.09 13.7112 10.093 13.7112 9.05333C13.7112 6.88333 11.9612 5.11 9.79125 5.11C8.74541 5.11 7.74241 5.52546 7.00289 6.26498C6.26337 7.00449 5.84791 8.0075 5.84791 9.05333C5.84791 11.2233 7.62125 12.9733 9.79125 12.9733ZM13.0346 36.1667V16.6367H6.57125V36.1667H13.0346Z" fill="white"/>
</svg>
