<svg width="43" height="43" viewBox="0 0 43 43" fill="none" xmlns="http://www.w3.org/2000/svg">
<path d="M36.7337 6.2566C34.7523 4.26593 32.3927 2.68754 29.7921 1.61339C27.1915 0.539245 24.4021 -0.00916579 21.5864 0.000115874C9.78844 0.000115874 0.172865 9.56759 0.172865 21.3066C0.172865 25.069 1.16683 28.724 3.02513 31.949L0 43L11.3442 40.033C14.4774 41.7315 17.9995 42.6345 21.5864 42.6345C33.3844 42.6345 43 33.067 43 21.3281C43 15.6306 40.7744 10.2771 36.7337 6.2566ZM21.5864 39.0225C18.3884 39.0225 15.2553 38.1625 12.5111 36.55L11.8628 36.163L5.12111 37.926L6.91457 31.39L6.48241 30.7235C4.70525 27.9007 3.7618 24.6375 3.7598 21.3066C3.7598 11.5456 11.7548 3.59061 21.5648 3.59061C26.3186 3.59061 30.7915 5.4396 34.1407 8.79359C35.7994 10.4359 37.1138 12.3895 38.0077 14.5412C38.9017 16.6929 39.3573 18.9998 39.3482 21.3281C39.3915 31.089 31.3965 39.0225 21.5864 39.0225ZM31.3533 25.7785C30.8131 25.5205 28.1769 24.2306 27.7015 24.0371C27.2045 23.8651 26.8588 23.7791 26.4915 24.295C26.1241 24.8325 25.1085 26.0365 24.806 26.3805C24.5035 26.746 24.1794 26.789 23.6392 26.5095C23.099 26.2515 21.3703 25.671 19.3392 23.8651C17.7402 22.4461 16.6814 20.7046 16.3573 20.1671C16.0548 19.6296 16.3141 19.3501 16.595 19.0706C16.8327 18.8341 17.1352 18.4471 17.3945 18.1461C17.6538 17.8451 17.7618 17.6086 17.9347 17.2646C18.1075 16.8991 18.0211 16.5981 17.8915 16.3401C17.7618 16.0821 16.6814 13.4591 16.2492 12.3841C15.8171 11.3521 15.3633 11.4811 15.0392 11.4596H14.002C13.6347 11.4596 13.0729 11.5886 12.5759 12.1261C12.1005 12.6636 10.7176 13.9536 10.7176 16.5766C10.7176 19.1996 12.6407 21.7366 12.9 22.0806C13.1593 22.4461 16.6814 27.821 22.0402 30.1215C23.3151 30.6805 24.309 31.003 25.0869 31.2395C26.3618 31.648 27.5286 31.5835 28.4578 31.4545C29.495 31.304 31.6342 30.1645 32.0663 28.9175C32.5201 27.6705 32.5201 26.617 32.3688 26.3805C32.2176 26.144 31.8935 26.0365 31.3533 25.7785Z" fill="white"/>
</svg>
